PathFileType	4	(X/Y/Z)	/Users/itak/Documents/Research/Walk-IL/dataset/trc/00403_00012.trc
DataRate	CameraRate	NumFrames	NumMarkers	Units	OrigDataRate	OrigDataStartFrame	OrigNumFrames
100.000000	100.000000	4	53	mm	100.000000	495	566
Frame#	Time	RPSI			LPSI			L3			STRN			T10			C7			CLAV			RBAK			LBAK			LSHO			LUPA			LAEL			LAOL			LWTS			LWPS			LFRA			LHPS			LHTS			RSHO			RUPA			RAEL			RAOL			RWTS			RWPS			RFRA			RIFD			RHTS			RHPS			RBHD			LFHD			RFHD			LBHD			LHIP			RHIP			RASI			LASI			LKNE			LTHI			LANK			LTIP			LTOE			LMT1			LMT5			LHEE			RKNE			RTHI			RANK			RTIP			RTOE			RMT1			RMT5			RHEE			LIFD			
		X1	Y1	Z1	X2	Y2	Z2	X3	Y3	Z3	X4	Y4	Z4	X5	Y5	Z5	X6	Y6	Z6	X7	Y7	Z7	X8	Y8	Z8	X9	Y9	Z9	X10	Y10	Z10	X11	Y11	Z11	X12	Y12	Z12	X13	Y13	Z13	X14	Y14	Z14	X15	Y15	Z15	X16	Y16	Z16	X17	Y17	Z17	X18	Y18	Z18	X19	Y19	Z19	X20	Y20	Z20	X21	Y21	Z21	X22	Y22	Z22	X23	Y23	Z23	X24	Y24	Z24	X25	Y25	Z25	X26	Y26	Z26	X27	Y27	Z27	X28	Y28	Z28	X29	Y29	Z29	X30	Y30	Z30	X31	Y31	Z31	X32	Y32	Z32	X33	Y33	Z33	X34	Y34	Z34	X35	Y35	Z35	X36	Y36	Z36	X37	Y37	Z37	X38	Y38	Z38	X39	Y39	Z39	X40	Y40	Z40	X41	Y41	Z41	X42	Y42	Z42	X43	Y43	Z43	X44	Y44	Z44	X45	Y45	Z45	X46	Y46	Z46	X47	Y47	Z47	X48	Y48	Z48	X49	Y49	Z49	X50	Y50	Z50	X51	Y51	Z51	X52	Y52	Z52	X53	Y53	Z53	

496	4.95	1146.020385742188	947.4262084960938	-28.07917976379395	1278.49267578125	943.6234741210938	-13.27060985565186	1204.054809570312	1017.610412597656	-24.56336784362793	1172.0537109375	1192.401733398438	189.6266174316406	1206.436279296875	1118.843017578125	-47.90830230712891	1206.445068359375	1370.54248046875	-32.34106063842773	1181.164794921875	1306.698852539062	127.1511840820312	1146.743896484375	1222.04248046875	-73.00817108154297	1309.530517578125	1333.91064453125	-35.10224914550781	1350.439575195312	1357.564575195312	53.3045539855957	1422.306274414062	1241.885131835938	34.01300048828125	1454.676391601562	1047.089599609375	53.62044525146484	1388.241821289062	1019.924072265625	6.41057825088501	1435.33154296875	840.951416015625	167.9615478515625	1490.392456054688	825.98095703125	109.0888290405273	1471.234375	945.3375244140625	75.06313323974609	1491.7841796875	743.8710327148438	132.7696533203125	1467.701782226562	750.5104370117188	191.6773834228516	1044.755249023438	1355.308837890625	0.5789196491241455	991.3390502929688	1290.611328125	-22.16584205627441	959.9293212890625	1028.845825195312	-36.14160537719727	1054.1845703125	1021.437622070312	-24.43447113037109	943.5708618164062	822.1290893554688	104.7216873168945	897.2886352539062	811.89697265625	46.44425201416016	935.2844848632812	965.6580810546875	-15.98927211761475	919.0864868164062	644.607177734375	106.7151489257812	911.4011840820312	716.7420043945312	116.2927703857422	890.59765625	724.4618530273438	49.53162384033203	1112.203247070312	1567.703979492188	10.10328006744385	1254.669677734375	1565.94482421875	150.9872589111328	1132.683837890625	1572.136840820312	142.7020111083984	1274.181274414062	1558.414916992188	3.120324373245239	1378.557373046875	949.0202026367188	93.85047912597656	1024.218872070312	925.5792236328125	34.77695846557617	1055.100341796875	939.3406982421875	180.2569885253906	1317.87109375	952.314208984375	198.2094573974609	1330.179931640625	474.4301147460938	266.3510437011719	1353.472778320312	607.1705322265625	217.5491485595703	1326.49267578125	31.51870918273926	237.2620086669922	1335.937744140625	238.4722747802734	263.26220703125	1193.024780273438	30.92906761169434	420.672119140625	1192.628173828125	31.75888252258301	333.4449157714844	1296.022583007812	30.68933486938477	360.65625	1285.911743164062	25.66514015197754	184.7245025634766	1077.788818359375	437.3584289550781	91.76044464111328	1035.157348632812	692.8200073242188	125.2273330688477	1124.294311523438	113.6743698120117	-208.7114562988281	1095.09326171875	325.9076843261719	29.45307922363281	1259.5263671875	22.26552391052246	-129.9935607910156	1249.154663085938	72.5394287109375	-168.2173004150391	1158.795043945312	40.53693389892578	-164.9905548095703	1158.479736328125	176.9852905273438	-264.0545654296875	1458.963500976562	668.9804077148438	208.867431640625	
497	4.96	1148.910766601562	948.1386108398438	-21.81735420227051	1280.9326171875	944.4762573242188	-4.930848121643066	1206.848754882812	1018.436401367188	-17.29423522949219	1171.78173828125	1193.37158203125	196.6338958740234	1209.249633789062	1119.599731445312	-40.10499954223633	1208.81787109375	1371.357421875	-25.25104713439941	1181.481811523438	1307.642211914062	134.0724334716797	1149.769775390625	1222.84326171875	-66.45620727539062	1312.003662109375	1334.756469726562	-26.69434928894043	1351.629272460938	1358.5546875	62.25361633300781	1423.887329101562	1242.854736328125	44.6556282043457	1457.096069335938	1048.47705078125	66.66443634033203	1391.430297851562	1020.509094238281	18.77906799316406	1437.858154296875	845.8251342773438	185.9623413085938	1493.189697265625	828.97265625	127.2101287841797	1473.807495117188	947.3343505859375	90.17121124267578	1494.680297851562	747.4663696289062	153.3405151367188	1470.158813476562	755.1741333007812	212.0259246826172	1046.73046875	1356.084350585938	5.753589153289795	993.7266845703125	1291.334350585938	-17.6275463104248	963.0624389648438	1029.641723632812	-32.6695671081543	1057.076049804688	1022.431579589844	-19.33407592773438	944.6881713867188	820.2515869140625	104.1268768310547	899.9705200195312	810.6187133789062	44.45731735229492	938.2692260742188	966.0587768554688	-13.93336868286133	921.8753662109375	641.9688720703125	103.4511108398438	913.6170654296875	713.998046875	113.3074722290039	895.0611572265625	722.8821411132812	45.09890365600586	1114.126708984375	1568.669799804688	15.85639381408691	1255.241943359375	1567.020751953125	157.9185943603516	1133.436889648438	1573.348510742188	148.5861511230469	1276.06689453125	1559.173706054688	10.21159553527832	1380.180908203125	950.4471435546875	103.6862335205078	1026.215576171875	925.5963745117188	40.53485107421875	1055.49462890625	940.3153686523438	186.028076171875	1317.9697265625	953.0764770507812	206.5816650390625	1330.486083984375	474.0508422851562	270.6913452148438	1353.93115234375	607.3529052734375	223.2485198974609	1326.160522460938	31.88576126098633	237.3206939697266	1335.814453125	238.0762481689453	265.45068359375	1192.809204101562	30.72228240966797	420.9808654785156	1192.35986328125	31.5752010345459	333.5069580078125	1295.693969726562	30.87780570983887	360.6924133300781	1285.713989257812	25.73230934143066	184.7179260253906	1075.82666015625	438.2252807617188	104.0803833007812	1034.826293945312	693.8297119140625	132.7123565673828	1123.5419921875	118.1383743286133	-200.3612213134766	1093.123779296875	327.4129943847656	41.04182434082031	1255.801513671875	21.63758659362793	-121.4096603393555	1247.291748046875	75.37349700927734	-159.0066375732422	1156.969116210938	42.56082534790039	-159.1992492675781	1158.834228515625	182.8546600341797	-253.5375671386719	1461.805297851562	673.5932006835938	229.8744506835938	
498	4.97	1151.659057617188	948.714111328125	-15.84585857391357	1283.202880859375	945.1319580078125	3.07514476776123	1209.552734375	1019.218627929688	-10.3866720199585	1171.5009765625	1194.180541992188	203.4512329101562	1211.957641601562	1120.37060546875	-32.58173370361328	1211.106689453125	1372.177734375	-18.2282543182373	1181.774047851562	1308.442138671875	140.8839111328125	1152.722900390625	1223.642822265625	-60.03942108154297	1314.39111328125	1335.6279296875	-18.38076400756836	1352.731567382812	1359.502807617188	71.11373138427734	1425.326293945312	1243.75927734375	55.20757675170898	1459.278686523438	1049.853515625	79.59345245361328	1394.40869140625	1021.095825195312	31.0341854095459	1440.074829101562	850.7472534179688	203.6875915527344	1495.67626953125	832.0797729492188	145.1499786376953	1476.123168945312	949.3678588867188	105.1175308227539	1497.30126953125	751.273193359375	173.727294921875	1472.408813476562	760.2232666015625	232.1319122314453	1048.632934570312	1356.77294921875	10.89876079559326	996.0656127929688	1291.969360351562	-13.16004467010498	966.1347045898438	1030.38525390625	-29.42264366149902	1059.9013671875	1023.322387695312	-14.52759265899658	945.9661865234375	818.6368408203125	103.5828857421875	902.6770629882812	809.6007080078125	42.70316696166992	941.2163696289062	966.4719848632812	-12.0057897567749	924.4591064453125	639.7584228515625	100.9489898681641	915.8189086914062	711.7208251953125	110.8870162963867	899.4284057617188	721.651123046875	41.17001342773438	1115.957275390625	1569.547119140625	21.53691101074219	1255.733642578125	1568.057739257812	164.7657318115234	1134.109008789062	1574.5107421875	154.3867950439453	1277.862670898438	1559.84814453125	17.22492599487305	1381.530029296875	951.438232421875	112.6559295654297	1028.0498046875	925.5438842773438	46.09113311767578	1055.912353515625	941.1591186523438	191.4608612060547	1318.059814453125	953.724609375	214.5727996826172	1330.682983398438	473.6737365722656	274.9822082519531	1354.270141601562	607.5382080078125	228.9217376708984	1325.854125976562	32.22449111938477	237.3916015625	1335.701049804688	237.6928100585938	267.616943359375	1192.611328125	30.52841758728027	421.2605285644531	1192.117309570312	31.39101219177246	333.5723266601562	1295.354370117188	31.01520729064941	360.7367553710938	1285.564575195312	25.78974723815918	184.7124481201172	1073.97705078125	439.1028747558594	116.4473037719727	1034.466430664062	694.6892700195312	140.0901947021484	1122.902099609375	122.6657104492188	-191.5618896484375	1091.406982421875	328.8460083007812	52.81412124633789	1251.167114257812	21.12505149841309	-111.1224746704102	1245.064086914062	78.07735443115234	-148.6955108642578	1154.634521484375	45.05720520019531	-152.4977722167969	1159.548706054688	188.1415405273438	-242.9430084228516	1464.446044921875	678.5855102539062	250.6296844482422	
499	4.98	1154.211669921875	949.1574096679688	-10.11855697631836	1285.2802734375	945.630615234375	10.71463584899902	1212.130126953125	1019.984252929688	-3.840643644332886	1171.21923828125	1194.8583984375	210.0631256103516	1214.526123046875	1121.162353515625	-25.34959602355957	1213.311889648438	1373.014404296875	-11.29780769348145	1182.049438476562	1309.126098632812	147.5627136230469	1155.59033203125	1224.450439453125	-53.7670783996582	1316.68505859375	1336.531860351562	-10.18730163574219	1353.7451171875	1360.430786132812	79.85018157958984	1426.634765625	1244.6318359375	65.64106750488281	1461.212646484375	1051.2509765625	92.38375854492188	1397.167724609375	1021.71875	43.15438079833984	1441.953491210938	855.6771850585938	221.0163726806641	1497.850708007812	835.3215942382812	162.8760070800781	1478.178466796875	951.46923828125	119.8759613037109	1499.646606445312	755.3157348632812	193.8698577880859	1474.437866210938	765.6581420898438	251.9342651367188	1050.466064453125	1357.401611328125	15.99981594085693	998.3517456054688	1292.550415039062	-8.769271850585938	969.1729125976562	1031.108276367188	-26.39282417297363	1062.685302734375	1024.147094726562	-9.998481750488281	947.4146118164062	817.2810668945312	103.1017990112305	905.4193725585938	808.8338623046875	41.18415832519531	944.1484375	966.915771484375	-10.20390605926514	926.8424682617188	637.9671630859375	99.13869476318359	917.98828125	709.8976440429688	109.0091400146484	903.640869140625	720.7508544921875	37.76919174194336	1117.697509765625	1570.348999023438	27.14997673034668	1256.156982421875	1569.056274414062	171.5286865234375	1134.70556640625	1575.6220703125	160.109375	1279.570678710938	1560.455810546875	24.16023254394531	1382.616333007812	952.0607299804688	120.7606048583984	1029.688842773438	925.4403076171875	51.47919082641602	1056.378784179688	941.88623046875	196.5669097900391	1318.171997070312	954.2930908203125	222.1806793212891	1330.7578125	473.3072814941406	279.2371215820312	1354.48828125	607.7403564453125	234.5896606445312	1325.57666015625	32.53595352172852	237.4691925048828	1335.584838867188	237.3281097412109	269.7630004882812	1192.43408203125	30.34172439575195	421.5138549804688	1191.896484375	31.20460319519043	333.6420593261719	1295.01513671875	31.11384963989258	360.7860107421875	1285.457153320312	25.84193992614746	184.7115020751953	1072.234741210938	440.0242614746094	128.7768707275391	1034.096801757812	695.441162109375	147.385498046875	1122.376220703125	127.1917114257812	-182.3084411621094	1089.925537109375	330.2356567382812	64.69141387939453	1245.607666015625	20.82915687561035	-99.17195129394531	1242.4150390625	80.52865600585938	-137.2461242675781	1151.724731445312	48.03989028930664	-144.7428131103516	1160.695434570312	192.7375030517578	-232.2914428710938	1466.872924804688	683.957275390625	271.0722351074219	
